<svg id="filled_outline" height="512" viewBox="0 0 512 512" width="512" xmlns="http://www.w3.org/2000/svg" data-name="filled outline"><path d="m496 32h-64l-80 32-80 72-80-16-80 48h-64v280h448z" fill="#eebf3e"/><rect fill="#4fbfcb" height="112" rx="8" transform="matrix(-1 0 0 -1 224 608)" width="48" x="88" y="248"/><rect fill="#4fbfcb" height="176" rx="8" transform="matrix(-1 0 0 -1 384 576)" width="48" x="168" y="200"/><rect fill="#cc4c4d" height="136" rx="8" transform="matrix(-1 0 0 -1 544 568)" width="48" x="248" y="216"/><rect fill="#4fbfcb" height="112" rx="8" transform="matrix(-1 0 0 -1 704 416)" width="48" x="328" y="152"/><rect fill="#4fbfcb" height="176" rx="8" transform="matrix(-1 0 0 -1 864 416)" width="48" x="408" y="120"/><path d="m416 472h32v16h-32z"/><path d="m336 472h32v16h-32z"/><path d="m256 472h32v16h-32z"/><path d="m176 472h32v16h-32z"/><path d="m96 472h32v16h-32z"/><path d="m120 400v-32h8a16.02085 16.02085 0 0 0 16-16v-96a16.02085 16.02085 0 0 0 -16-16h-8v-32h-16v32h-8a16.02085 16.02085 0 0 0 -16 16v96a16.02085 16.02085 0 0 0 16 16h8v32zm-24-144h32v96h-32z"/><path d="m200 416v-32h8a16.02085 16.02085 0 0 0 16-16v-160a16.02085 16.02085 0 0 0 -16-16h-8v-32h-16v32h-8a16.02085 16.02085 0 0 0 -16 16v160a16.02085 16.02085 0 0 0 16 16h8v32zm-24-208h32v160h-32z"/><path d="m280 392v-32h8a16.02085 16.02085 0 0 0 16-16v-120a16.02085 16.02085 0 0 0 -16-16h-8v-32h-16v32h-8a16.02085 16.02085 0 0 0 -16 16v120a16.02085 16.02085 0 0 0 16 16h8v32zm-24-168h32v120h-32z"/><path d="m360 304v-32h8a16.02085 16.02085 0 0 0 16-16v-96a16.02085 16.02085 0 0 0 -16-16h-8v-32h-16v32h-8a16.02085 16.02085 0 0 0 -16 16v96a16.02085 16.02085 0 0 0 16 16h8v32zm-24-144h32v96h-32z"/><path d="m440 336v-32h8a16.02085 16.02085 0 0 0 16-16v-160a16.02085 16.02085 0 0 0 -16-16h-8v-32h-16v32h-8a16.02085 16.02085 0 0 0 -16 16v160a16.02085 16.02085 0 0 0 16 16h8v32zm-24-208h32v160h-32z"/><path d="m496 24h-64a8.05581 8.05581 0 0 0 -2.96875.57031l-80 32a8.03243 8.03243 0 0 0 -2.38281 1.48438l-77.01563 69.3125-76.0625-15.21094a8.0433 8.0433 0 0 0 -5.6875.98437l-78.10156 46.85938h-53.78125v-144h-16v40h-24v16h24v32h-24v16h24v32h-24v16h24v32h-24v16h24v32h-24v16h24v32h-24v16h24v32h-24v16h24v32h-24v16h24v24a24.02624 24.02624 0 0 0 24 24h432v-16h-432a8.00541 8.00541 0 0 1 -8-8v-256h56a7.9553 7.9553 0 0 0 4.11719-1.14062l77.34375-46.40626 76.96875 15.39063a8.03569 8.03569 0 0 0 6.92187-1.89844l78.94532-71.04687 77.24218-30.89844h62.46094z"/></svg>